<?xml version="1.0" encoding="iso-8859-1"?>
<!-- Generator: Adobe Illustrator 18.1.1, SVG Export Plug-In . SVG Version: 6.00 Build 0)  -->
<svg version="1.1" id="Capa_1" xmlns="http://www.w3.org/2000/svg" xmlns:xlink="http://www.w3.org/1999/xlink" x="0px" y="0px"
	 viewBox="0 0 174.239 174.239" style="enable-background:new 0 0 174.239 174.239;" xml:space="preserve">
<g>
	<path d="M154.043,79.652c-1.44-12.982-6.59-24.845-14.354-34.542l14.314-14.313l-10.559-10.559L129.13,34.551
		c-9.697-7.765-21.561-12.914-34.543-14.354V0H79.652v20.196c-12.982,1.44-24.846,6.59-34.543,14.354L30.796,20.239L20.236,30.798
		L34.55,45.111c-7.765,9.696-12.914,21.56-14.354,34.542H0v14.935h20.196c1.44,12.982,6.59,24.845,14.354,34.542l-14.314,14.313
		l10.559,10.559l14.314-14.312c9.697,7.765,21.561,12.914,34.543,14.354v20.196h14.935v-20.196
		c12.982-1.44,24.847-6.59,34.544-14.355l14.313,14.313l10.559-10.559l-14.313-14.313c7.764-9.696,12.913-21.56,14.353-34.541
		h20.196V79.652H154.043z M34.692,87.12c0-28.907,23.518-52.427,52.427-52.427s52.427,23.52,52.427,52.427
		s-23.518,52.427-52.427,52.427S34.692,116.027,34.692,87.12z"/>
	<path d="M112.055,87.12c0-13.749-11.187-24.935-24.935-24.935S62.185,73.371,62.185,87.12s11.187,24.935,24.935,24.935
		S112.055,100.868,112.055,87.12z M77.119,87.12c0-5.513,4.487-10,10-10s10,4.487,10,10s-4.487,10-10,10S77.119,92.633,77.119,87.12
		z"/>
</g>
<g>
</g>
<g>
</g>
<g>
</g>
<g>
</g>
<g>
</g>
<g>
</g>
<g>
</g>
<g>
</g>
<g>
</g>
<g>
</g>
<g>
</g>
<g>
</g>
<g>
</g>
<g>
</g>
<g>
</g>
</svg>
